<?xml version="1.0" encoding="utf-8"?>
<!-- Generator: Adobe Illustrator 19.0.1, SVG Export Plug-In . SVG Version: 6.00 Build 0)  -->
<svg version="1.1" id="Sound_x5F_waves" xmlns="http://www.w3.org/2000/svg" xmlns:xlink="http://www.w3.org/1999/xlink" x="0px"
	 y="0px" viewBox="0 0 128 128" style="enable-background:new 0 0 128 128;" xml:space="preserve">
<style type="text/css">
	.st0{display:none;}
	.st1{display:inline;fill:#1E1A1B;}
	.st2{display:inline;fill:#232323;}
	.st3{display:none;fill:#1E1A1B;}
	.st4{display:none;fill:#232323;}
	.st5{fill:#232323;}
</style>
<g id="row3" class="st0">
	<path id="icon:5_2_" class="st1" d="M128,62.7v2.6h-6.2c-7,19-14.2,37.6-28.1,37.6c-14,0-21.1-18.6-28.1-37.6H0v-2.6h7.6
		c7-19,14.2-37.6,28.1-37.6h0.7c14,0,21.1,18.6,28.1,37.6H128z"/>
	<polygon id="icon:4_2_" class="st1" points="128,64.7 128,67.5 123.9,67.5 123.9,73.1 119.4,73.1 119.4,67.5 114.8,67.5 
		114.8,75.9 110.2,75.9 110.2,67.5 59.9,67.5 59.9,71.7 55.4,71.7 55.4,67.5 50.8,67.5 50.8,74.5 46.2,74.5 46.2,67.5 41.6,67.5 
		41.6,91.3 37.1,91.3 37.1,67.5 32.5,67.5 32.5,82.9 27.9,82.9 27.9,67.5 0,67.5 0,64.7 3.6,64.7 3.6,59.1 8.1,59.1 8.1,64.7 
		12.7,64.7 12.7,56.3 17.3,56.3 17.3,64.7 21.8,64.7 21.8,53.5 26.4,53.5 26.4,64.7 63,64.7 63,59.1 67.6,59.1 67.6,64.7 72.1,64.7 
		72.1,56.3 76.7,56.3 76.7,64.7 81.3,64.7 81.3,53.5 85.8,53.5 85.8,64.7 90.4,64.7 90.4,43.7 95,43.7 95,64.7 99.6,64.7 99.6,36.7 
		104.1,36.7 104.1,64.7 	"/>
	<path id="icon:3_1_" class="st2" d="M6.1,95.7H0V60.3h6.1V95.7z M14.2,65.9H8.1v29.9h6.1V65.9z M22.3,47.2h-6.1v48.5h6.1V47.2z
		 M30.5,39.7h-6.1v56h6.1V39.7z M38.6,34.1h-6.1v61.6h6.1V34.1z M46.7,43.5h-6.1v52.2h6.1V43.5z M54.9,34.1h-6.1v61.6h6.1V34.1z
		 M63,60.3h-6.1v35.5H63V60.3z M71.1,43.5H65v52.2h6.1V43.5z M79.2,37.9h-6.1v57.8h6.1V37.9z M87.4,32.3h-6.1v63.4h6.1V32.3z
		 M95.5,36h-6.1v59.7h6.1V36z M103.6,41.6h-6.1v54.1h6.1V41.6z M111.7,32.3h-6.1v63.4h6.1V32.3z M119.9,32.3h-6.1v63.4h6.1V32.3z
		 M128,39.7h-6.1v56h6.1V39.7z"/>
	<path id="icon:2_2_" class="st2" d="M24.1,86.7H2c-1.1,0-2-0.9-2-2V43.1c0-1.1,0.9-2,2-2h22.1V86.7z M74.4,8.7L28.2,41.2v45.6
		l46.2,32.6V8.7z M128,77.2L113.7,64L128,50.8l-7.3-6.7l-14.3,13.2L92.1,44.2l-7.3,6.7L99.2,64L84.8,77.2l7.3,6.7l14.3-13.2
		l14.3,13.2L128,77.2z"/>
	<path id="icon:1" class="st2" d="M110.7,24.3V0h-8v24.3c-7.6,1.8-13.3,8.5-13.3,16.5c0,8,5.7,14.8,13.3,16.5V128h8V57.3
		c7.6-1.8,13.3-8.5,13.3-16.5C124,32.8,118.3,26.1,110.7,24.3z M106.7,49.9c-5.1,0-9.3-4.1-9.3-9.1c0-5,4.2-9.1,9.3-9.1
		c5.1,0,9.3,4.1,9.3,9.1C116,45.8,111.8,49.9,106.7,49.9z M68,47.8V0h-8v47.8c-7.6,1.8-13.3,8.5-13.3,16.5c0,8,5.7,14.8,13.3,16.5
		V128h8V80.8c7.6-1.8,13.3-8.5,13.3-16.5C81.3,56.3,75.6,49.6,68,47.8z M64,73.5c-5.1,0-9.3-4.1-9.3-9.1c0-5,4.2-9.1,9.3-9.1
		s9.3,4.1,9.3,9.1C73.3,69.4,69.1,73.5,64,73.5z M25.3,73.9V0h-8v73.9C9.7,75.7,4,82.4,4,90.4c0,8,5.7,14.8,13.3,16.5V128h8v-21.1
		c7.6-1.8,13.3-8.5,13.3-16.5C38.7,82.4,33,75.7,25.3,73.9z M21.3,99.6c-5.1,0-9.3-4.1-9.3-9.1c0-5,4.2-9.1,9.3-9.1s9.3,4.1,9.3,9.1
		C30.7,95.5,26.5,99.6,21.3,99.6z"/>
</g>
<g id="row2">
	<path id="icon:5_1_" class="st3" d="M121.3,61.6c-0.1-6.2-0.7-11-1.5-11c-0.8,0-1.4,4.3-1.5,10.1c-0.2-0.2-0.5-0.3-0.8-0.3
		c-0.4,0-0.8,0.3-1.1,0.7c-0.1-7.7-0.6-13.7-1.3-13.7c-0.7,0-1.2,5.7-1.3,13.2c-0.3-0.9-0.9-1.6-1.5-1.6c-0.7,0-1.3,0.7-1.6,1.8
		c-0.2-1.1-0.7-1.8-1.2-1.8c-0.5,0-1,0.7-1.2,1.8c-0.2-1.3-0.8-2.2-1.4-2.2c-0.5,0-1,0.7-1.3,1.7c-0.1-16.8-0.6-29.9-1.2-29.9
		c-0.6,0-1.2,13.8-1.2,31.3h0c-0.1-1.8-0.6-3-1.2-3c-0.2,0-0.4,0.2-0.6,0.6c-0.2-5-0.8-8.6-1.5-8.6c-0.8,0-1.4,4.3-1.5,10.1
		c-0.2-0.2-0.5-0.3-0.8-0.3c-0.4,0-0.8,0.3-1.1,0.7c-0.1-7.7-0.6-13.7-1.3-13.7c-0.7,0-1.2,5.7-1.3,13.2c-0.3-0.9-0.9-1.6-1.5-1.6
		c-0.7,0-1.3,0.7-1.6,1.8c-0.2-1.1-0.7-1.8-1.2-1.8c-0.5,0-1,0.7-1.2,1.8c-0.2-1.3-0.8-2.3-1.4-2.3c-0.5,0-1,0.7-1.3,1.7
		c-0.1-16.8-0.6-29.9-1.2-29.9c-0.6,0-1.2,13.8-1.2,31.3h0c-0.1-1.8-0.6-3-1.2-3c-0.5,0-0.9,1-1.1,2.4c-0.1-5.9-1-10.4-2.1-10.4
		c-1,0-1.9,4.3-2.1,10.1c-0.3-0.2-0.7-0.3-1-0.3c-0.6,0-1.1,0.3-1.5,0.7c-0.1-7.7-0.9-13.7-1.8-13.7c-0.9,0-1.7,5.7-1.8,13.2
		c-0.4-1-1.2-1.6-2.1-1.6c-0.9,0-1.7,0.7-2.1,1.8c-0.3-1-0.9-1.7-1.7-1.7c-0.7,0-1.3,0.7-1.7,1.8c-0.3-1.3-1-2.2-1.9-2.2
		c-0.7,0-1.3,0.7-1.7,1.7c-0.1-16.8-0.8-29.9-1.6-29.9c-0.9,0-1.6,13.8-1.6,31.3h-0.1c-0.2-1.8-0.8-3-1.6-3c-0.4,0-0.7,0.4-1,0.9
		c-0.1-5.2-0.6-9-1.2-9c-0.6,0-1.1,4.3-1.2,10.1c-0.2-0.2-0.4-0.3-0.6-0.3c-0.3,0-0.7,0.3-0.9,0.7c0-7.7-0.5-13.8-1-13.8
		c-0.5,0-1,5.7-1,13.2c-0.3-1-0.7-1.6-1.2-1.6c-0.5,0-1,0.7-1.3,1.8c-0.2-1-0.5-1.8-0.9-1.8s-0.8,0.7-1,1.8
		c-0.2-1.3-0.6-2.2-1.1-2.2c-0.4,0-0.8,0.7-1,1.7c0-16.8-0.4-29.9-0.9-29.9c-0.5,0-0.9,13.8-0.9,31.3h0c-0.1-1.8-0.5-3-0.9-3
		c-0.4,0-0.8,1.3-0.9,3H36c-0.1-2.2-0.4-3.9-0.9-3.9s-0.8,1.7-0.9,3.9h-0.1c-0.1-1.5-0.5-2.6-0.9-2.6c-0.1,0-0.2,0.1-0.3,0.3
		c-0.1-5.6-0.4-9.6-0.8-9.6c-0.4,0-0.8,5.2-0.8,12H31c-0.1-1.8-0.3-3-0.6-3c-0.3,0-0.5,1.3-0.6,3h-1.2c-0.1-0.3-0.2-0.4-0.4-0.4
		c-0.1,0-0.3,0.2-0.4,0.4h-1.6c0-6.3-0.4-11.2-0.8-11.2c-0.4,0-0.8,4.9-0.8,11.2h-0.7c-0.1-1.1-0.3-2-0.5-2c-0.2,0-0.4,0.8-0.5,2
		h-0.1c-0.1-0.7-0.3-1.2-0.6-1.2c-0.2,0-0.5,0.5-0.6,1.2h-0.5c-0.1-1.2-0.5-2.1-0.9-2.1c-0.4,0-0.8,0.9-0.9,2.1h0
		c0-5.6-0.4-10-0.9-10c-0.5,0-0.9,3.9-0.9,9.1c-0.5,0-0.9,0.4-1.2,0.9h-0.4c-0.2-1.5-0.7-2.5-1.4-2.5c-0.7,0-1.2,1.1-1.4,2.5h-0.2
		c-0.2-0.9-0.7-1.4-1.3-1.4c-0.6,0-1,0.6-1.3,1.4H7.9c-0.3-0.7-0.7-1.1-1.3-1.1c-0.2,0-0.4,0-0.5,0.1c-0.2-0.3-0.5-0.5-0.8-0.5
		c-0.5,0-0.9,0.6-1.1,1.5H0V64h4.2c0.2,0.9,0.6,1.5,1.1,1.5c0.3,0,0.5-0.1,0.7-0.4c0.2,0.1,0.4,0.2,0.6,0.2c0.6,0,1.1-0.5,1.4-1.3
		h2.6c0.3,0.6,0.7,1,1.1,1c0.4,0,0.8-0.4,1.1-1h0.4c0.2,1.3,0.7,2.2,1.3,2.2c0.6,0,1.1-0.9,1.3-2.2h0.4c0.3,0.5,0.7,0.9,1.2,0.9
		c0.1,4.9,0.5,8.6,0.9,8.6c0.5,0,0.9-4.2,0.9-9.5h0.2c0.2,0.7,0.5,1.2,0.8,1.2c0.3,0,0.6-0.5,0.8-1.2h0.7c0.1,0.4,0.3,0.7,0.5,0.7
		c0.2,0,0.3-0.3,0.5-0.7H23c0.1,0.7,0.3,1.2,0.4,1.2s0.3-0.5,0.4-1.2h0.7c0,6.4,0.4,11.4,0.8,11.4c0.4,0,0.8-5,0.8-11.4h1.4
		c0.1,0.7,0.3,1.2,0.6,1.2c0.3,0,0.5-0.5,0.6-1.2h1c0.1,1.6,0.3,2.8,0.6,2.8c0.3,0,0.5-1.2,0.6-2.8h0.4c0,6.7,0.4,12,0.8,12
		c0.4,0,0.7-4.2,0.8-10c0.1,0.2,0.2,0.3,0.3,0.3c0.4,0,0.7-1,0.9-2.3h0.1c0.1,2,0.4,3.5,0.8,3.5c0.4,0,0.7-1.5,0.8-3.5h1.7
		c0.1,1.6,0.5,2.8,0.9,2.8s0.8-1.2,0.9-2.8h0.1c0,18.6,0.4,33.7,0.9,33.7c0.5,0,0.9-14.8,0.9-33.1c0.2,1,0.6,1.7,1,1.7
		c0.5,0,0.9-0.9,1.1-2.3c0,0,0,0,0-0.1h0v0.1c0.2,1.1,0.5,1.8,0.9,1.8c0.4,0,0.8-0.7,1-1.8c0,0,0,0,0,0h0c0,0,0,0,0,0
		c0.2,1.1,0.7,1.8,1.2,1.8c0.5,0,0.9-0.6,1.2-1.6c0-0.1,0-0.1,0-0.2h0c0,0.1,0,0.1,0,0.2c0.1,7.7,0.5,13.6,1,13.6
		c0.5,0,1-6.1,1-13.9c0-0.1,0-0.1,0-0.2c0,0.1,0.1,0.1,0.1,0.2c0.2,0.4,0.5,0.6,0.8,0.6c0.2,0,0.4-0.1,0.6-0.3
		c0.1,6,0.6,10.6,1.2,10.6c0.6,0,1-3.8,1.2-9c0.3,0.6,0.6,0.9,1,0.9c0.7,0,1.3-1.2,1.5-2.8h0.1c0,18.6,0.7,33.7,1.6,33.7
		c0.9,0,1.6-14.7,1.6-33.1c0.4,1,1,1.7,1.7,1.7c0.8,0,1.5-0.9,1.9-2.3c0,0,0,0,0-0.1h0c0,0,0,0,0,0.1c0.3,1.1,0.9,1.8,1.7,1.8
		c0.7,0,1.3-0.7,1.7-1.8c0,0,0,0,0,0h0c0,0,0,0,0,0c0.4,1,1.2,1.8,2.1,1.8c0.9,0,1.6-0.6,2.1-1.6c0.1,7.7,0.9,13.6,1.8,13.6
		c0.9,0,1.7-6.1,1.8-13.9h0.1c0.4,0.4,0.8,0.6,1.3,0.6c0.4,0,0.7-0.1,1-0.3c0.1,6,1,10.6,2.1,10.6c1.1,0,1.9-4.5,2.1-10.4
		c0.2,1.4,0.6,2.4,1.1,2.4c0.5,0,1-1.2,1.1-2.8h0.1c0,18.6,0.5,33.7,1.2,33.7c0.7,0,1.2-14.7,1.2-33c0.3,1,0.7,1.7,1.2,1.7
		c0.6,0,1.1-1,1.4-2.3c0,0,0,0,0,0h0v0c0.2,1.1,0.7,1.8,1.2,1.8c0.5,0,1-0.7,1.2-1.8c0,0,0,0,0,0h0c0,0,0,0,0,0
		c0.3,1.1,0.9,1.8,1.6,1.8c0.7,0,1.2-0.6,1.5-1.6c0-0.1,0-0.1,0-0.2h0.1c0,0.1,0,0.1-0.1,0.2c0.1,7.7,0.6,13.6,1.3,13.6
		c0.7,0,1.3-6.1,1.3-13.9c0,0,0-0.1,0-0.1c0,0,0.1,0.1,0.1,0.1c0.3,0.4,0.6,0.6,1,0.6c0.3,0,0.5-0.1,0.8-0.3
		c0.1,6,0.7,10.6,1.5,10.6c0.7,0,1.3-3.6,1.5-8.6c0.2,0.4,0.4,0.6,0.6,0.6c0.5,0,1-1.2,1.1-2.8h5.1c0,0,0,0,0,0.1
		c0.3,1.1,0.7,1.8,1.2,1.8c0.5,0,1-0.7,1.2-1.8l0,0h0c0,0,0,0,0,0c0.3,1.1,0.9,1.8,1.6,1.8c0.7,0,1.2-0.6,1.5-1.6c0-0.1,0-0.1,0-0.2
		h0.1c0,0.1,0,0.1-0.1,0.2c0.1,7.7,0.6,13.6,1.3,13.6c0.7,0,1.3-6.1,1.3-13.9c0,0,0-0.1,0-0.1c0,0,0.1,0.1,0.1,0.1
		c0.3,0.4,0.6,0.6,1,0.6c0.3,0,0.5-0.1,0.8-0.3V64h0.2c-0.1,0.1-0.1,0.2-0.2,0.3c0.1,6,0.7,10.6,1.5,10.6c0.8,0,1.5-4.8,1.5-10.8
		h6.7v-2.4H121.3z M116.4,61.6h-0.3c0.1-0.2,0.1-0.4,0.3-0.6C116.4,61.2,116.4,61.4,116.4,61.6z"/>
	<polygon id="icon:4_1_" class="st4" points="128,60.4 128,66 125.9,66 125.9,67.2 124,67.2 124,68.5 122.3,68.5 122.3,69.5 
		120.7,69.5 120.7,70.4 119.1,70.4 119.1,69.5 117.5,69.5 117.5,74.4 115.6,74.4 115.6,72.9 113.9,72.9 113.9,75.5 110.7,75.5 
		110.7,81.9 107.8,81.9 107.8,75.8 100.1,75.8 100.1,74.1 98.9,74.1 98.9,70.9 97.9,70.9 97.9,78.8 96.3,78.8 96.3,74.4 94.7,74.4 
		94.7,70.9 93.5,70.9 93.5,72.9 90.3,72.9 90.3,70.9 88.9,70.9 88.9,69.3 88.2,69.3 88.2,79.1 86.6,79.1 86.6,78.5 84.9,78.5 
		84.9,74.4 83.7,74.4 83.7,77.1 82.1,77.1 82.1,69.5 77.8,69.5 77.8,73.6 76.1,73.6 76.1,69.3 75,69.3 75,64.7 47.4,64.7 47.4,69.5 
		45.7,69.5 45.7,70.4 44.1,70.4 44.1,69.5 42.5,69.5 42.5,74.4 40.6,74.4 40.6,72.9 39,72.9 39,75.5 35.8,75.5 35.8,81.9 32.9,81.9 
		32.9,75.8 25.1,75.8 25.1,74.1 23.9,74.1 23.9,70.9 23,70.9 23,78.8 21.3,78.8 21.3,74.4 19.8,74.4 19.8,70.9 18.5,70.9 18.5,72.9 
		15.3,72.9 15.3,70.9 13.9,70.9 13.9,69.3 13.2,69.3 13.2,79.1 11.6,79.1 11.6,78.5 10,78.5 10,74.4 8.8,74.4 8.8,77.1 7.1,77.1 
		7.1,69.5 2.8,69.5 2.8,73.6 1.2,73.6 1.2,69.3 0,69.3 0,57.2 1.2,57.2 1.2,52.8 2.8,52.8 2.8,57.4 7.1,57.4 7.1,51.2 8.8,51.2 
		8.8,53.8 10,53.8 10,49.6 11.6,49.6 11.6,48.2 13.2,48.2 13.2,57.4 13.9,57.4 13.9,55.3 15.3,55.3 15.3,52.4 18.5,52.4 18.5,55.3 
		19.8,55.3 19.8,52.4 21.3,52.4 21.3,49.1 23,49.1 23,56.6 23.9,56.6 23.9,53.8 25.1,53.8 25.1,49.1 26.8,49.1 26.8,51.2 32.9,51.2 
		32.9,46.1 35.8,46.1 35.8,52.8 39,52.8 39,54.3 40.6,54.3 40.6,52.1 42.5,52.1 42.5,56.9 44.1,56.9 44.1,55 45.7,55 45.7,56.3 
		47.4,56.3 47.4,61.8 75,61.8 75,57.2 76.1,57.2 76.1,52.8 77.8,52.8 77.8,57.4 82.1,57.4 82.1,51.2 83.7,51.2 83.7,53.8 84.9,53.8 
		84.9,49.6 86.6,49.6 86.6,48.2 88.2,48.2 88.2,57.4 88.9,57.4 88.9,55.3 90.3,55.3 90.3,52.4 93.5,52.4 93.5,55.3 94.7,55.3 
		94.7,52.4 96.3,52.4 96.3,49.1 97.9,49.1 97.9,56.6 98.9,56.6 98.9,53.8 100.1,53.8 100.1,49.1 101.7,49.1 101.7,51.2 107.8,51.2 
		107.8,46.1 110.7,46.1 110.7,52.8 113.9,52.8 113.9,54.3 115.6,54.3 115.6,52.1 117.5,52.1 117.5,56.9 119.1,56.9 119.1,55 
		120.7,55 120.7,56.3 122.3,56.3 122.3,57.9 124,57.9 124,59.1 125.9,59.1 125.9,60.4 	"/>
	<path id="icon:3_2_" class="st4" d="M19.5,82.4H2c-1.1,0-2-0.9-2-2v-33c0-1.1,0.9-2,2-2h17.5V82.4z M60.3,19.2L22.9,45.5v36.9
		l37.4,26.4V19.2z M69.5,60.3c3.4,3.1,3.4,8.2,0,11.3l5.3,4.8c6.3-5.8,6.3-15.2,0-21L69.5,60.3z M87.1,44.1
		c13.1,12,13.1,31.6,0,43.6l5.3,4.8c16-14.7,16-38.6,0-53.3L87.1,44.1z M103.8,28.8c22.3,20.5,22.3,53.8,0,74.3l5.3,4.8
		c25.2-23.2,25.2-60.8,0-84L103.8,28.8z"/>
	<path id="icon:2" class="st4" d="M26.9,104.2H0V98h26.9V104.2z M60.6,98H33.7v6.2h26.9V98z M94.3,98H67.4v6.2h26.9V98z M128,98
		h-26.9v6.2H128V98z M26.9,96H0v-6.2h26.9V96z M60.6,89.8H33.7V96h26.9V89.8z M94.3,89.8H67.4V96h26.9V89.8z M128,89.8h-26.9V96H128
		V89.8z M26.9,87.7H0v-6.2h26.9V87.7z M60.6,81.5H33.7v6.2h26.9V81.5z M94.3,81.5H67.4v6.2h26.9V81.5z M128,81.5h-26.9v6.2H128V81.5
		z M26.9,79.5H0v-6.2h26.9V79.5z M60.6,73.3H33.7v6.2h26.9V73.3z M128,73.3h-26.9v6.2H128V73.3z M26.9,71.2H0V65h26.9V71.2z M128,65
		h-26.9v6.2H128V65z M26.9,63H0v-6.2h26.9V63z M60.6,65H33.7v6.2h26.9V65z M128,56.8h-26.9V63H128V56.8z M26.9,46.5H0v-6.2h26.9
		V46.5z M60.6,56.8H33.7V63h26.9V56.8z M94.3,73.3H67.4v6.2h26.9V73.3z M128,40.3h-26.9v6.2H128V40.3z M26.9,30H0v-6.2h26.9V30z
		 M60.6,40.3H33.7v6.2h26.9V40.3z M94.3,56.8H67.4V63h26.9V56.8z M128,23.8h-26.9V30H128V23.8z"/>
	<path id="icon:1_1_" class="st5" d="M8.8,78.2H0V49.8h8.8V78.2z M22.1,42.7h-8.8v42.6h8.8V42.7z M35.3,35.6h-8.8v56.7h8.8V35.6z
		 M48.6,27.5h-8.8v73h8.8V27.5z M61.8,39.3H53v49.5h8.8V39.3z M75,47h-8.8v34H75V47z M119.2,100.5h8.8v-73h-8.8V100.5z M105.9,39.3
		h8.8v49.5h-8.8V39.3z M92.7,47h8.8v34h-8.8V47z M88.3,55h-8.8V73h8.8V55z"/>
</g>
<g id="row1">
	<path id="icon:5" class="st4" d="M78.1,100.3c-0.1,0-0.1,0-0.2,0c-2-0.1-3.6-1.4-3.9-3.2L63.5,38.6L52.2,96
		c-0.4,1.9-2.1,3.2-4.1,3.2h0c-2.1,0-3.8-1.3-4.1-3.2l-7.7-39.3l-5.1,22H0v-5h26.7l5.6-24c0.4-1.8,2.1-3,4.1-3c0,0,0,0,0.1,0
		c2,0,3.7,1.3,4.1,3.2l7.6,38.7l11.3-57.7c0.4-1.9,2.1-3.2,4.1-3.2c0,0,0,0,0,0c2.1,0,3.8,1.3,4.1,3.2l10.7,59.9l8.9-30.6
		c0.5-1.7,2.2-2.9,4.1-2.9c1.9,0,3.6,1.3,4,3l6.9,28.5l5.7-13.2H128v5h-16.2l-5.9,13.7c-0.7,1.6-2.4,2.6-4.2,2.4
		c-1.8-0.1-3.4-1.3-3.8-3l-6.7-27.6l-9.1,31.3C81.6,99.1,80,100.3,78.1,100.3z"/>
	<path id="icon:4" class="st4" d="M24.7,42.6H0V31.9h24.7V42.6z M24.7,45.3H0V56h24.7V45.3z M24.7,58.7H0v10.7h24.7V58.7z M24.7,72
		H0v10.7h24.7V72z M24.7,85.4H0v10.7h24.7V85.4z M94.5,45.3H69.8V56h24.7V45.3z M94.5,58.7H69.8v10.7h24.7V58.7z M94.5,72H69.8v10.7
		h24.7V72z M94.5,85.4H69.8v10.7h24.7V85.4z M128,72h-24.7v10.7H128V72z M128,85.4h-24.7v10.7H128V85.4z M59.6,58.7H34.9v10.7h24.7
		V58.7z M59.6,72H34.9v10.7h24.7V72z M59.6,85.4H34.9v10.7h24.7V85.4z"/>
	<path id="icon:3" class="st4" d="M18.9,108.1H0V77.7h18.9V108.1z M128,19.9h-18.9v88.3H128V19.9z M100.7,39.1H81.8v69h18.9V39.1z
		 M73.4,77.7H54.6v30.5h18.9V77.7z M46.2,58.4H27.3v49.8h18.9V58.4z"/>
	<path id="icon:2_1_" class="st4" d="M128,89.2c-6.9,0-9.1-10.9-11.9-24.8c-1.4-6.8-3.9-19.3-6.4-20.5c-2.5,1.3-5,13.8-6.4,20.5
		c-2.8,13.8-5,24.8-11.9,24.8c-6.9,0-9.1-10.9-11.9-24.8c-1.4-6.8-3.9-19.3-6.4-20.5c-2.5,1.3-5,13.8-6.4,20.5
		c-2.8,13.8-5,24.8-11.9,24.8c-6.9,0-9.1-10.9-11.9-24.8c-1.4-6.8-3.9-19.3-6.4-20.5c-2.5,1.3-5,13.8-6.4,20.5
		c-2.8,13.8-5,24.8-11.9,24.8c-6.9,0-9.1-10.9-11.9-24.8C5.1,57.6,2.5,44.9,0,43.9l0.1-5.1C7,38.8,9.2,49.7,12,63.5
		c1.4,6.8,3.9,19.3,6.4,20.5c2.5-1.3,5-13.8,6.4-20.5c2.8-13.8,5-24.8,11.9-24.8c6.9,0,9.1,10.9,11.9,24.8
		c1.4,6.8,3.9,19.3,6.4,20.5c2.5-1.3,5-13.8,6.4-20.5c2.8-13.8,5-24.8,11.9-24.8c6.9,0,9.1,10.9,11.9,24.8
		c1.4,6.8,3.9,19.3,6.4,20.5c2.5-1.3,5-13.8,6.4-20.5c2.8-13.8,5-24.8,11.9-24.8c6.9,0,9.1,10.9,11.9,24.8
		c1.4,6.8,3.9,19.3,6.4,20.5L128,89.2z"/>
	<path id="icon:1_2_" class="st4" d="M50.3,90.3H24.5c-1.1,0-2-0.9-2-2V39.5c0-1.1,0.9-2,2-2h25.8V90.3z M105.5,0L55.1,37.6v52.7
		l50.4,37.6V0z"/>
</g>
</svg>
